<svg width="32" height="23" viewBox="0 0 32 23" fill="none" xmlns="http://www.w3.org/2000/svg">
<path d="M25.109 17.5045C24.986 17.5045 24.863 17.4595 24.767 17.3685L19.013 11.9705C18.812 11.7825 18.802 11.4655 18.991 11.2645C19.18 11.0615 19.495 11.0525 19.698 11.2425L25.452 16.6405C25.653 16.8285 25.663 17.1455 25.474 17.3465C25.375 17.4515 25.243 17.5045 25.109 17.5045Z" fill="black"/>
<path d="M5.902 17.5045C5.769 17.5045 5.636 17.4515 5.537 17.3465C5.348 17.1455 5.358 16.8285 5.559 16.6405L11.315 11.2425C11.517 11.0545 11.834 11.0625 12.022 11.2645C12.211 11.4655 12.201 11.7825 12 11.9705L6.244 17.3685C6.148 17.4595 6.025 17.5045 5.902 17.5045Z" fill="black"/>
<path d="M28.512 22.5235H2.5C1.122 22.5235 0 21.4025 0 20.0235V2.9765C0 1.5975 1.122 0.476501 2.5 0.476501H28.512C29.89 0.476501 31.012 1.5975 31.012 2.9765V20.0235C31.012 21.4025 29.89 22.5235 28.512 22.5235ZM2.5 1.4765C1.673 1.4765 1 2.1495 1 2.9765V20.0235C1 20.8505 1.673 21.5235 2.5 21.5235H28.512C29.339 21.5235 30.012 20.8505 30.012 20.0235V2.9765C30.012 2.1495 29.339 1.4765 28.512 1.4765H2.5Z" fill="black"/>
<path d="M15.506 14.0125C14.841 14.0125 14.176 13.7915 13.67 13.3505L0.829997 2.1495C0.621997 1.9685 0.599997 1.6525 0.780997 1.4435C0.963997 1.2355 1.279 1.2165 1.487 1.3955L14.327 12.5955C14.966 13.1525 16.046 13.1525 16.684 12.5955L29.508 1.4135C29.715 1.2325 30.03 1.2525 30.214 1.4615C30.395 1.6705 30.374 1.9855 30.166 2.1675L17.342 13.3495C16.835 13.7915 16.171 14.0125 15.506 14.0125Z" fill="black"/>
</svg>
